<svg width="16" height="15" viewBox="0 0 16 15" fill="none" xmlns="http://www.w3.org/2000/svg">
<path fill-rule="evenodd" clip-rule="evenodd" d="M8 14.4777L0 5.18219L3.46559 0.48583L8 0L12.5344 0.48583L16 5.18219L8 14.4777Z" fill="#FA60FA"/>
<path fill-rule="evenodd" clip-rule="evenodd" d="M8 14.4776L0 5.18213H16L8 14.4776Z" fill="#EC00E3"/>
<path fill-rule="evenodd" clip-rule="evenodd" d="M8.00064 14.4776L3.2395 5.18213H12.7618L8.00064 14.4776Z" fill="#FA60FA"/>
<path fill-rule="evenodd" clip-rule="evenodd" d="M8.00064 0L3.2395 5.18219H12.7618L8.00064 0Z" fill="#F8D0FF"/>
<path fill-rule="evenodd" clip-rule="evenodd" d="M3.46583 0.48584L1.68445 2.85021L0.000244141 5.18219H3.2715L3.46583 0.48584Z" fill="#FA60FA"/>
<path fill-rule="evenodd" clip-rule="evenodd" d="M12.5342 0.48584L14.3156 2.85021L15.9998 5.18219H12.7285L12.5342 0.48584Z" fill="#FA60FA"/>
<path fill-rule="evenodd" clip-rule="evenodd" d="M3.46549 0.48583L3.23877 5.18219L7.9999 0L3.46549 0.48583Z" fill="#FEABFB"/>
<path fill-rule="evenodd" clip-rule="evenodd" d="M12.5344 0.48583L12.7611 5.18219L8 0L12.5344 0.48583Z" fill="#FEABFB"/>
</svg>
