<svg width="20" height="18" viewBox="0 0 20 18" fill="none" xmlns="http://www.w3.org/2000/svg">
<path d="M13.4842 13.5185C11.8769 14.8972 10.4552 15.9485 10 16.279C9.54459 15.9483 8.12304 14.897 6.51599 13.5185C4.62061 11.8926 2.5424 9.8742 1.4452 8.0758L1.44176 8.07L1.43651 8.0611C0.987839 7.31334 0.75 6.45358 0.75 5.57322C0.75 2.91104 2.90591 0.75 5.54681 0.75C7.07683 0.75 8.49854 1.48017 9.39693 2.69529L10 3.51098L10.6031 2.69529C11.5014 1.48018 12.9234 0.75 14.4532 0.75C17.0941 0.75 19.25 2.91104 19.25 5.57322C19.25 6.45358 19.0122 7.31334 18.5635 8.0611L18.5581 8.0701L18.556 8.0738C17.4592 9.8727 15.3803 11.892 13.4842 13.5185Z" fill="black" fill-opacity="0.2" stroke="white" stroke-width="1.5"/>
</svg>
